# Blender v2.80 (sub 75) OBJ File: ''
# www.blender.org
mtllib arrows.mtl
o Cube
v 1.000000 1.000000 -1.000000
v 1.000000 -1.000000 -1.000000
v -1.000000 1.000000 -1.000000
v -1.000000 -1.000000 -1.000000
v 1.000000 1.000000 -7.881044
v 1.000000 -1.000000 -7.881044
v -1.000000 1.000000 -7.881044
v -1.000000 -1.000000 -7.881044
v 1.484908 1.484908 -7.881044
v 1.484908 -1.484908 -7.881044
v -1.484908 1.484908 -7.881044
v -1.484908 -1.484908 -7.881044
v 0.394263 0.394263 -10.641960
v 0.394263 -0.394263 -10.641960
v -0.394263 0.394263 -10.641960
v -0.394263 -0.394263 -10.641960
v 1.000000 1.000000 1.000000
v 1.000000 1.000000 -1.000000
v -1.000000 1.000000 1.000000
v -1.000000 1.000000 -1.000000
v 1.000000 7.881044 1.000000
v 1.000000 7.881044 -1.000000
v -1.000000 7.881044 1.000000
v -1.000000 7.881044 -1.000000
v 1.484908 7.881044 1.484909
v 1.484908 7.881043 -1.484908
v -1.484908 7.881044 1.484909
v -1.484908 7.881043 -1.484908
v 0.394263 10.641960 0.394263
v 0.394263 10.641960 -0.394262
v -0.394263 10.641960 0.394263
v -0.394263 10.641960 -0.394262
v 1.000000 -1.000000 1.000000
v 1.000000 -1.000000 -1.000000
v 1.000000 1.000000 1.000000
v 1.000000 1.000000 -1.000000
v 7.881044 -1.000000 1.000000
v 7.881044 -1.000000 -0.999999
v 7.881043 1.000000 1.000000
v 7.881044 1.000000 -0.999999
v 7.881044 -1.484909 1.484908
v 7.881043 -1.484908 -1.484908
v 7.881043 1.484908 1.484908
v 7.881043 1.484908 -1.484908
v 10.641960 -0.394263 0.394263
v 10.641960 -0.394263 -0.394262
v 10.641960 0.394262 0.394263
v 10.641960 0.394262 -0.394262
v -1.000000 -1.000000 1.000000
vt 0.375000 0.500000
vt 0.125000 0.500000
vt 0.125000 0.500000
vt 0.375000 0.500000
vt 0.125000 0.500000
vt 0.375000 0.500000
vt 0.375000 0.750000
vt 0.625000 0.750000
vt 0.625000 0.750000
vt 0.375000 0.750000
vt 0.625000 0.750000
vt 0.625000 0.750000
vt 0.625000 0.000000
vt 0.375000 0.000000
vt 0.375000 0.000000
vt 0.625000 0.000000
vt 0.375000 0.750000
vt 0.625000 0.750000
vt 0.625000 0.750000
vt 0.375000 0.750000
vt 0.625000 0.750000
vt 0.375000 0.000000
vt 0.625000 0.000000
vt 0.625000 0.500000
vt 0.875000 0.500000
vt 0.875000 0.750000
vt 0.625000 0.750000
vt 0.375000 0.000000
vt 0.625000 0.000000
vt 0.125000 0.500000
vt 0.375000 0.500000
vt 0.647110 0.028721
vt 0.647110 0.028721
vt 0.647110 1.247499
vt 0.647110 1.247499
vt 0.732997 1.247499
vt 0.732997 1.247499
vt 0.292868 0.028721
vt 0.292868 0.028721
vt 0.292868 1.247499
vt 0.292868 1.247499
vt 0.206980 1.247499
vt 0.206980 1.247499
vt 0.400157 1.736516
vt 0.400157 1.736516
vt 0.539821 1.736516
vt 0.539821 1.736516
vt 0.389902 0.464092
vt 0.399301 0.468435
vt 0.587119 0.468241
vt 0.593734 0.463864
vt 0.585625 0.456213
vt 0.595455 0.448023
vt 0.399079 0.522963
vt 0.389639 0.523263
vt 0.593959 0.523279
vt 0.587312 0.522976
vt 0.585901 0.535968
vt 0.595803 0.538115
vt 0.672069 0.505590
vt 0.666890 0.506032
vt 0.671911 0.482720
vt 0.666741 0.483890
vt 0.375000 0.000000
vt 0.625000 0.000000
vt 0.000000 0.000000
vt 0.000000 0.000000
vt 0.375000 0.750000
vt 0.000000 0.000000
vt 0.125000 0.500000
vn 1.0000 0.0000 0.0000
vn 0.0000 0.0000 1.0000
vn -1.0000 0.0000 0.0000
vn 0.0000 -1.0000 0.0000
vn 0.0000 1.0000 0.0000
vn -0.9301 0.0000 -0.3674
vn 0.0000 0.0000 -1.0000
vn 0.0000 -0.9301 -0.3674
vn 0.0000 0.9301 -0.3674
vn 0.9301 0.0000 -0.3674
vn -0.9301 0.3674 -0.0000
vn 0.0000 0.3674 -0.9301
vn 0.0000 0.3674 0.9301
vn 0.9301 0.3674 -0.0000
vn 0.3674 0.9301 0.0000
vn 0.3674 0.0000 -0.9301
vn 0.3674 0.0000 0.9301
vn 0.3674 -0.9301 -0.0000
usemtl Material
s off
f 1/1/1 2/2/1 6/3/1 5/4/1
f 5/4/2 6/3/2 10/5/2 9/6/2
f 4/7/3 3/8/3 7/9/3 8/10/3
f 2/11/4 4/7/4 8/10/4 6/12/4
f 3/13/5 1/14/5 5/15/5 7/16/5
f 12/17/6 11/18/6 15/19/6 16/20/6
f 8/10/2 7/9/2 11/18/2 12/17/2
f 6/12/2 8/10/2 12/17/2 10/21/2
f 7/16/2 5/15/2 9/22/2 11/23/2
f 16/24/7 15/25/7 13/26/7 14/27/7
f 10/21/8 12/17/8 16/20/8 14/27/8
f 11/23/9 9/22/9 13/28/9 15/29/9
f 9/6/10 10/5/10 14/30/10 13/31/10
f 17/32/1 18/33/1 22/34/1 21/35/1
f 21/35/4 22/34/4 26/36/4 25/37/4
f 20/38/3 19/39/3 23/40/3 24/41/3
f 18/33/7 20/38/7 24/41/7 22/34/7
f 19/39/2 17/32/2 21/35/2 23/40/2
f 28/42/11 27/43/11 31/44/11 32/45/11
f 24/41/4 23/40/4 27/43/4 28/42/4
f 22/34/4 24/41/4 28/42/4 26/36/4
f 23/40/4 21/35/4 25/37/4 27/43/4
f 32/45/5 31/44/5 29/46/5 30/47/5
f 26/36/12 28/42/12 32/45/12 30/47/12
f 27/43/13 25/37/13 29/46/13 31/44/13
f 25/37/14 26/36/14 30/47/14 29/46/14
f 33/48/4 34/49/4 38/50/4 37/51/4
f 37/51/3 38/50/3 42/52/3 41/53/3
f 36/54/5 35/55/5 39/56/5 40/57/5
f 34/49/7 36/54/7 40/57/7 38/50/7
f 35/55/2 33/48/2 37/51/2 39/56/2
f 44/58/15 43/59/15 47/60/15 48/61/15
f 40/57/3 39/56/3 43/59/3 44/58/3
f 38/50/3 40/57/3 44/58/3 42/52/3
f 39/56/3 37/51/3 41/53/3 43/59/3
f 48/61/1 47/60/1 45/62/1 46/63/1
f 42/52/16 44/58/16 48/61/16 46/63/16
f 43/59/17 41/53/17 45/62/17 47/60/17
f 41/53/18 42/52/18 46/63/18 45/62/18
f 33/64/2 35/65/2 19/66/2 49/67/2
f 19/66/3 20/68/3 4/69/3 49/67/3
f 33/64/4 49/67/4 4/69/4 34/70/4
