# Blender v2.80 (sub 75) OBJ File: 'ship.blend'
# www.blender.org
mtllib rock.mtl
o Rock_Icosphere
v 0.000000 -0.631911 0.000000
v 0.435286 -0.269030 0.316251
v -0.188312 -0.304703 0.579571
v -0.549585 -0.274798 0.000000
v -0.146515 -0.237068 -0.450924
v 0.497297 -0.307353 -0.361303
v 0.218649 0.353793 0.672943
v -0.493838 0.305216 0.358791
v -0.515140 0.318381 -0.374267
v 0.186566 0.301876 -0.574195
v 0.511172 0.255592 0.000000
v 0.000000 0.642205 0.000000
v -0.102088 -0.534554 0.314200
v 0.238274 -0.476547 0.173114
v 0.152117 -0.304234 0.468157
v 0.564049 -0.348609 0.000000
v 0.276313 -0.552628 -0.200751
v -0.324493 -0.525038 0.000000
v -0.503102 -0.384341 0.365523
v -0.112220 -0.587610 -0.345384
v -0.420653 -0.321355 -0.305620
v 0.163001 -0.326002 -0.501653
v 0.636403 0.000000 0.206778
v 0.522462 0.000000 -0.169758
v 0.000000 0.000000 0.682248
v 0.364421 0.000000 0.501573
v -0.672254 0.000000 0.218426
v -0.387961 0.000000 0.533976
v -0.366326 0.000000 -0.504195
v -0.718522 0.000000 -0.233459
v 0.394214 0.000000 -0.542582
v 0.000000 0.000000 -0.661013
v 0.446445 0.341058 0.324358
v -0.192240 0.384479 0.591640
v -0.562053 0.347376 0.000000
v -0.191454 0.382908 -0.589222
v 0.465420 0.355554 -0.338145
v 0.114839 0.601320 0.353443
v 0.341259 0.552167 0.000000
v -0.233229 0.466458 0.169449
v -0.280474 0.560950 -0.203774
v 0.111754 0.585166 -0.343948
vt 0.818181 0.000000
vt 0.772726 0.078731
vt 0.863635 0.078731
vt 0.727272 0.157461
vt 0.681818 0.078731
vt 0.636363 0.157461
vt 0.090909 0.000000
vt 0.045454 0.078731
vt 0.136363 0.078731
vt 0.272727 0.000000
vt 0.227273 0.078731
vt 0.318182 0.078731
vt 0.454545 0.000000
vt 0.409090 0.078731
vt 0.500000 0.078731
vt 0.681818 0.236191
vt 0.909090 0.157461
vt 0.818181 0.157461
vt 0.863635 0.236191
vt 0.181818 0.157461
vt 0.090909 0.157461
vt 0.136363 0.236191
vt 0.363636 0.157461
vt 0.272727 0.157461
vt 0.318182 0.236191
vt 0.545454 0.157461
vt 0.454545 0.157461
vt 0.500000 0.236191
vt 0.772726 0.236191
vt 0.954545 0.236191
vt 0.227273 0.236191
vt 0.409090 0.236191
vt 0.590909 0.236191
vt 0.818181 0.314921
vt 0.727272 0.314921
vt 0.772726 0.393651
vt 1.000000 0.314921
vt 0.909091 0.314921
vt 0.954545 0.393651
vt 0.272727 0.314921
vt 0.181818 0.314921
vt 0.227273 0.393651
vt 0.454545 0.314921
vt 0.363636 0.314921
vt 0.409090 0.393651
vt 0.636363 0.314921
vt 0.545454 0.314921
vt 0.590909 0.393651
vt 0.500000 0.393651
vt 0.545454 0.472382
vt 0.318182 0.393651
vt 0.363636 0.472382
vt 0.136363 0.393651
vt 0.181818 0.472382
vt 0.090909 0.314921
vt 0.863635 0.393651
vt 0.909090 0.472382
vt 0.681818 0.393651
vt 0.727272 0.472382
vt 0.045454 0.236191
vt 0.000000 0.157461
vt 0.590909 0.078731
vt 0.636363 0.000000
vn 0.3032 -0.8779 0.3706
vn 0.5112 -0.7609 0.3996
vn -0.3072 -0.9327 0.1892
vn -0.3128 -0.9496 -0.0202
vn 0.1525 -0.9728 -0.1743
vn 0.7980 -0.4212 0.4309
vn 0.2773 -0.4563 0.8455
vn -0.9146 -0.4044 -0.0049
vn -0.2990 -0.4645 -0.8336
vn 0.3767 -0.3736 -0.8476
vn 0.7089 -0.2638 0.6541
vn -0.3554 -0.0937 0.9300
vn -0.8808 -0.4649 0.0902
vn -0.3417 -0.4962 -0.7982
vn 0.9383 0.1243 -0.3228
vn 0.5949 0.7174 0.3625
vn -0.3982 0.8925 0.2120
vn -0.6607 0.7375 -0.1399
vn 0.1685 0.6481 -0.7427
vn 0.8673 0.4969 0.0295
vn 0.2543 0.9640 -0.0772
vn 0.5268 0.8045 -0.2743
vn 0.4235 0.6361 -0.6450
vn -0.1328 0.9699 -0.2040
vn -0.2143 0.8670 -0.4500
vn -0.4562 0.7631 -0.4578
vn -0.4450 0.8531 0.2723
vn -0.4486 0.8512 0.2723
vn -0.4171 0.8901 0.1839
vn -0.4613 0.8517 0.2484
vn -0.4485 0.8682 0.2121
vn -0.0654 0.7784 0.6243
vn 0.2550 0.9665 0.0289
vn 0.6070 0.7415 0.2858
vn 0.8669 0.4967 0.0421
vn 0.9887 0.1108 -0.1010
vn 0.9456 -0.0023 -0.3253
vn 0.5763 0.3176 -0.7530
vn 0.0869 0.2254 -0.9704
vn -0.3934 -0.0244 -0.9190
vn -0.5619 0.0736 -0.8240
vn -0.8617 0.4860 -0.1457
vn -0.9300 0.3549 0.0952
vn -0.8829 0.4164 0.2168
vn -0.6315 0.2095 0.7466
vn -0.3567 0.0416 0.9333
vn -0.1823 0.1383 0.9735
vn 0.8357 0.0812 0.5431
vn 0.7239 0.1729 0.6679
vn 0.8799 0.4724 0.0511
vn 0.2864 0.0972 -0.9532
vn 0.2737 -0.3085 -0.9110
vn -0.2836 -0.5319 -0.7979
vn -0.6090 0.0387 -0.7922
vn -0.5684 -0.3608 -0.7394
vn -0.7398 -0.6375 -0.2150
vn -0.7371 0.1255 0.6641
vn -0.7411 -0.0706 0.6677
vn -0.5125 -0.2113 0.8323
vn 0.4308 -0.2434 0.8690
vn 0.4112 -0.3781 0.8294
vn 0.4698 -0.4135 0.7799
vn 0.9318 0.2284 -0.2820
vn 0.9568 -0.0268 -0.2895
vn 0.9835 0.0305 -0.1782
vn 0.3093 -0.7000 -0.6437
vn 0.3028 -0.7030 -0.6435
vn -0.2379 -0.3013 -0.9234
vn -0.3728 -0.3008 -0.8778
vn -0.6489 -0.7114 -0.2699
vn -0.7273 -0.6543 -0.2072
vn -0.7393 -0.6650 -0.1053
vn -0.3213 -0.9258 0.1994
vn -0.2124 -0.7717 0.5994
vn 0.6570 -0.7257 -0.2043
vn 0.4563 -0.8618 0.2218
vn 0.4144 -0.8827 0.2218
vn 0.2231 -0.6998 0.6786
vn 0.3558 -0.7581 0.5466
vn 0.3857 -0.7432 0.5467
usemtl Rock
s off
f 1/1/1 14/2/1 13/3/1
f 2/4/2 14/5/2 16/6/2
f 1/7/3 13/8/3 18/9/3
f 1/10/4 18/11/4 20/12/4
f 1/13/5 20/14/5 17/15/5
f 2/4/6 16/6/6 23/16/6
f 3/17/7 15/18/7 25/19/7
f 4/20/8 19/21/8 27/22/8
f 5/23/9 21/24/9 29/25/9
f 6/26/10 22/27/10 31/28/10
f 2/4/11 23/16/11 26/29/11
f 3/17/12 25/19/12 28/30/12
f 4/20/13 27/22/13 30/31/13
f 5/23/14 29/25/14 32/32/14
f 6/26/15 31/28/15 24/33/15
f 7/34/16 33/35/16 38/36/16
f 8/37/17 34/38/17 40/39/17
f 9/40/18 35/41/18 41/42/18
f 10/43/19 36/44/19 42/45/19
f 11/46/20 37/47/20 39/48/20
f 39/48/21 42/49/21 12/50/21
f 39/48/22 37/47/22 42/49/22
f 37/47/23 10/43/23 42/49/23
f 42/45/24 41/51/24 12/52/24
f 42/45/25 36/44/25 41/51/25
f 36/44/26 9/40/26 41/51/26
f 41/42/27 40/53/27 12/54/27
f 41/42/28 35/41/28 40/53/28
f 35/41/29 8/55/29 40/53/29
f 40/39/30 38/56/30 12/57/30
f 40/39/31 34/38/31 38/56/31
f 34/38/32 7/34/32 38/56/32
f 38/36/33 39/58/33 12/59/33
f 38/36/34 33/35/34 39/58/34
f 33/35/35 11/46/35 39/58/35
f 24/33/36 37/47/36 11/46/36
f 24/33/37 31/28/37 37/47/37
f 31/28/38 10/43/38 37/47/38
f 32/32/39 36/44/39 10/43/39
f 32/32/40 29/25/40 36/44/40
f 29/25/41 9/40/41 36/44/41
f 30/31/42 35/41/42 9/40/42
f 30/31/43 27/22/43 35/41/43
f 27/22/44 8/55/44 35/41/44
f 28/30/45 34/38/45 8/37/45
f 28/30/46 25/19/46 34/38/46
f 25/19/47 7/34/47 34/38/47
f 26/29/48 33/35/48 7/34/48
f 26/29/49 23/16/49 33/35/49
f 23/16/50 11/46/50 33/35/50
f 31/28/51 32/32/51 10/43/51
f 31/28/52 22/27/52 32/32/52
f 22/27/53 5/23/53 32/32/53
f 29/25/54 30/31/54 9/40/54
f 29/25/55 21/24/55 30/31/55
f 21/24/56 4/20/56 30/31/56
f 27/22/57 28/60/57 8/55/57
f 27/22/58 19/21/58 28/60/58
f 19/21/59 3/61/59 28/60/59
f 25/19/60 26/29/60 7/34/60
f 25/19/61 15/18/61 26/29/61
f 15/18/62 2/4/62 26/29/62
f 23/16/63 24/33/63 11/46/63
f 23/16/64 16/6/64 24/33/64
f 16/6/65 6/26/65 24/33/65
f 17/15/66 22/27/66 6/26/66
f 17/15/67 20/14/67 22/27/67
f 20/14/68 5/23/68 22/27/68
f 20/12/69 21/24/69 5/23/69
f 20/12/70 18/11/70 21/24/70
f 18/11/71 4/20/71 21/24/71
f 18/9/72 19/21/72 4/20/72
f 18/9/73 13/8/73 19/21/73
f 13/8/74 3/61/74 19/21/74
f 16/6/75 17/62/75 6/26/75
f 16/6/76 14/5/76 17/62/76
f 14/5/77 1/63/77 17/62/77
f 13/3/78 15/18/78 3/17/78
f 13/3/79 14/2/79 15/18/79
f 14/2/80 2/4/80 15/18/80
