# Blender v2.80 (sub 75) OBJ File: 'ship.blend'
# www.blender.org
mtllib bullet.mtl
o Bullet_Cylinder
v 0.000000 0.093008 0.291212
v 0.065766 0.065766 0.291212
v 0.093008 -0.000000 0.291212
v 0.065767 -0.065766 0.291212
v -0.000000 -0.093008 0.291212
v -0.065767 -0.065766 0.291212
v -0.093008 -0.000000 0.291212
v -0.065767 0.065766 0.291212
v -0.000000 0.053329 -0.267926
v 0.124932 -0.110867 0.190270
v 0.037709 0.037709 -0.267926
v 0.112651 -0.123147 0.190270
v 0.053329 -0.000000 -0.267926
v 0.124932 -0.110867 0.278987
v 0.037709 -0.037709 -0.267926
v 0.112651 -0.123147 0.278987
v 0.000000 -0.053329 -0.267926
v -0.110180 0.124245 0.190270
v -0.037709 -0.037709 -0.267926
v -0.122461 0.111965 0.190270
v -0.053329 0.000000 -0.267926
v -0.110180 0.124245 0.278987
v -0.037709 0.037709 -0.267926
v -0.122461 0.111965 0.278987
v 0.000000 0.082003 -0.226452
v 0.000000 0.087743 -0.181022
v 0.062044 0.062044 -0.181022
v 0.057985 0.057985 -0.226452
v 0.087743 0.000000 -0.181022
v 0.082004 0.000000 -0.226452
v 0.062044 -0.062044 -0.181022
v 0.057985 -0.057985 -0.226452
v -0.000000 -0.087743 -0.181022
v -0.000000 -0.082003 -0.226452
v -0.062044 -0.062044 -0.181022
v -0.057985 -0.057985 -0.226452
v -0.087743 0.000000 -0.181022
v -0.082004 0.000000 -0.226452
v -0.062044 0.062044 -0.181022
v -0.057985 0.057985 -0.226452
v -0.004905 -0.005591 0.278987
v -0.004905 -0.005591 0.088613
v 0.007376 0.006689 0.278987
v 0.007376 0.006689 0.088613
v 0.112651 0.124245 0.190270
v 0.124932 0.111965 0.190270
v 0.112651 0.124245 0.278987
v 0.124932 0.111965 0.278987
v -0.122461 -0.110867 0.190270
v -0.110180 -0.123147 0.190270
v -0.122461 -0.110867 0.278987
v -0.110180 -0.123147 0.278987
v 0.007376 -0.005591 0.278987
v 0.007376 -0.005591 0.088613
v -0.004905 0.006689 0.278987
v -0.004905 0.006689 0.088613
vt 1.000000 0.568440
vt 1.000000 1.000000
vt 0.875000 1.000000
vt 0.875000 0.568440
vt 0.419706 0.419706
vt 0.250000 0.490000
vt 0.080294 0.419706
vt 0.010000 0.250000
vt 0.080294 0.080294
vt 0.250000 0.010000
vt 0.419706 0.080294
vt 0.490000 0.250000
vt 0.125000 0.568440
vt 0.125000 1.000000
vt 0.000000 1.000000
vt 0.000000 0.568440
vt 0.750000 1.000000
vt 0.750000 0.568440
vt 0.625000 1.000000
vt 0.625000 0.568440
vt 0.500000 1.000000
vt 0.500000 0.568440
vt 0.375000 1.000000
vt 0.375000 0.568440
vt 0.250000 1.000000
vt 0.250000 0.568440
vt 0.619268 0.545456
vt 0.505732 0.545456
vt 0.526804 0.500000
vt 0.598196 0.500000
vt 0.494268 0.545456
vt 0.380732 0.545456
vt 0.401804 0.500000
vt 0.473196 0.500000
vt 0.369268 0.545456
vt 0.255732 0.545456
vt 0.276804 0.500000
vt 0.348196 0.500000
vt 0.244268 0.545456
vt 0.130732 0.545456
vt 0.151804 0.500000
vt 0.223196 0.500000
vt 0.375000 0.000000
vt 0.625000 0.000000
vt 0.625000 0.250000
vt 0.375000 0.250000
vt 0.744268 0.545456
vt 0.630732 0.545456
vt 0.651804 0.500000
vt 0.723196 0.500000
vt 0.869268 0.545456
vt 0.755732 0.545456
vt 0.776804 0.500000
vt 0.848196 0.500000
vt 0.994268 0.545456
vt 0.880732 0.545456
vt 0.901804 0.500000
vt 0.973196 0.500000
vt 0.750000 0.387072
vt 0.846925 0.346925
vt 0.887072 0.250000
vt 0.846925 0.153075
vt 0.750000 0.112928
vt 0.653075 0.153075
vt 0.612928 0.250000
vt 0.653075 0.346925
vt 0.005732 0.545456
vt 0.119268 0.545456
vt 0.026804 0.500000
vt 0.098196 0.500000
vt 0.375000 0.375000
vt 0.625000 0.375000
vt 0.625000 0.500000
vt 0.375000 0.500000
vt 0.625000 0.750000
vt 0.375000 0.750000
vt 0.375000 0.875000
vt 0.625000 0.875000
vt 0.625000 1.000000
vt 0.375000 1.000000
vt 0.250000 0.500000
vt 0.250000 0.750000
vt 0.750000 0.500000
vt 0.875000 0.500000
vt 0.875000 0.750000
vt 0.750000 0.750000
vt 0.125000 0.500000
vt 0.125000 0.750000
vt 0.375000 0.000000
vt 0.625000 0.000000
vt 0.625000 0.250000
vt 0.375000 0.250000
vt 0.375000 0.375000
vt 0.625000 0.375000
vt 0.625000 0.500000
vt 0.375000 0.500000
vt 0.625000 0.750000
vt 0.375000 0.750000
vt 0.375000 0.875000
vt 0.625000 0.875000
vt 0.625000 1.000000
vt 0.375000 1.000000
vt 0.250000 0.500000
vt 0.250000 0.750000
vt 0.750000 0.500000
vt 0.875000 0.500000
vt 0.875000 0.750000
vt 0.750000 0.750000
vt 0.125000 0.500000
vt 0.125000 0.750000
vn 0.3827 0.9238 -0.0103
vn -0.0000 -0.0000 1.0000
vn -0.3827 0.9238 -0.0103
vn 0.9238 0.3827 -0.0103
vn 0.9238 -0.3827 -0.0103
vn 0.3827 -0.9238 -0.0103
vn -0.3827 -0.9238 -0.0103
vn -0.9238 -0.3827 -0.0103
vn -0.9238 0.3827 -0.0103
vn 0.3225 -0.7786 -0.5383
vn -0.3225 -0.7786 -0.5383
vn -0.7786 -0.3225 -0.5383
vn -0.7786 0.3225 -0.5383
vn -0.7071 0.7071 0.0000
vn 0.7786 -0.3225 -0.5383
vn 0.7786 0.3225 -0.5383
vn 0.3225 0.7786 -0.5383
vn -0.0000 0.0000 -1.0000
vn 0.3801 0.9177 -0.1159
vn 0.9176 0.3801 -0.1159
vn 0.9176 -0.3801 -0.1159
vn 0.3801 -0.9176 -0.1159
vn -0.3801 -0.9176 -0.1159
vn -0.9176 -0.3801 -0.1159
vn -0.9176 0.3801 -0.1159
vn -0.3801 0.9176 -0.1159
vn -0.3225 0.7786 -0.5383
vn 0.3689 -0.3689 -0.8531
vn 0.7071 -0.7071 0.0000
vn -0.7071 -0.7071 0.0000
vn 0.7071 0.7071 0.0000
vn -0.3689 0.3689 -0.8531
vn 0.3689 0.3689 -0.8531
vn -0.3689 -0.3689 -0.8531
usemtl Ship
s off
f 26/1/1 1/2/1 2/3/1 27/4/1
f 2/5/2 1/6/2 8/7/2 7/8/2 6/9/2 5/10/2 4/11/2 3/12/2
f 39/13/3 8/14/3 1/15/3 26/16/3
f 27/4/4 2/3/4 3/17/4 29/18/4
f 29/18/5 3/17/5 4/19/5 31/20/5
f 31/20/6 4/19/6 5/21/6 33/22/6
f 33/22/7 5/21/7 6/23/7 35/24/7
f 35/24/8 6/23/8 7/25/8 37/26/8
f 37/26/9 7/25/9 8/14/9 39/13/9
usemtl Black
f 32/27/10 34/28/10 17/29/10 15/30/10
f 34/31/11 36/32/11 19/33/11 17/34/11
f 36/35/12 38/36/12 21/37/12 19/38/12
f 38/39/13 40/40/13 23/41/13 21/42/13
f 24/43/14 22/44/14 18/45/14 20/46/14
f 30/47/15 32/48/15 15/49/15 13/50/15
f 28/51/16 30/52/16 13/53/16 11/54/16
f 25/55/17 28/56/17 11/57/17 9/58/17
f 9/59/18 11/60/18 13/61/18 15/62/18 17/63/18 19/64/18 21/65/18 23/66/18
f 26/1/19 27/4/19 28/56/19 25/55/19
f 27/4/20 29/18/20 30/52/20 28/51/20
f 29/18/21 31/20/21 32/48/21 30/47/21
f 31/20/22 33/22/22 34/28/22 32/27/22
f 33/22/23 35/24/23 36/32/23 34/31/23
f 35/24/24 37/26/24 38/36/24 36/35/24
f 37/26/25 39/13/25 40/40/25 38/39/25
f 39/13/26 26/16/26 25/67/26 40/68/26
f 40/68/27 25/67/27 9/69/27 23/70/27
f 42/71/28 44/72/28 10/73/28 12/74/28
f 12/74/29 10/73/29 14/75/29 16/76/29
f 41/77/2 43/78/2 22/79/2 24/80/2
f 42/81/30 12/74/30 16/76/30 41/82/30
f 44/83/31 18/84/31 22/85/31 43/86/31
f 10/73/31 44/83/31 43/86/31 14/75/31
f 20/87/30 42/81/30 41/82/30 24/88/30
f 16/76/2 14/75/2 43/78/2 41/77/2
f 20/46/32 18/45/32 44/72/32 42/71/32
f 52/89/30 51/90/30 49/91/30 50/92/30
f 54/93/33 56/94/33 45/95/33 46/96/33
f 46/96/31 45/95/31 47/97/31 48/98/31
f 53/99/2 55/100/2 51/101/2 52/102/2
f 54/103/29 46/96/29 48/98/29 53/104/29
f 56/105/14 49/106/14 51/107/14 55/108/14
f 45/95/14 56/105/14 55/108/14 47/97/14
f 50/109/29 54/103/29 53/104/29 52/110/29
f 48/98/2 47/97/2 55/100/2 53/99/2
f 50/92/34 49/91/34 56/94/34 54/93/34
