# Blender v2.80 (sub 75) OBJ File: 'ship.blend'
# www.blender.org
o Bullet_Cylinder
v 0.000000 0.093008 0.291212
v 0.065766 0.065766 0.291212
v 0.093008 -0.000000 0.291212
v 0.065767 -0.065766 0.291212
v -0.000000 -0.093008 0.291212
v -0.065767 -0.065766 0.291212
v -0.093008 -0.000000 0.291212
v -0.065767 0.065766 0.291212
v -0.000000 0.053329 -0.267926
v 0.124932 -0.110867 0.190270
v 0.037709 0.037709 -0.267926
v 0.112651 -0.123147 0.190270
v 0.053329 -0.000000 -0.267926
v 0.124932 -0.110867 0.278987
v 0.037709 -0.037709 -0.267926
v 0.112651 -0.123147 0.278987
v 0.000000 -0.053329 -0.267926
v -0.110180 0.124245 0.190270
v -0.037709 -0.037709 -0.267926
v -0.122461 0.111965 0.190270
v -0.053329 0.000000 -0.267926
v -0.110180 0.124245 0.278987
v -0.037709 0.037709 -0.267926
v -0.122461 0.111965 0.278987
v 0.000000 0.082003 -0.226452
v 0.000000 0.087743 -0.181022
v 0.062044 0.062044 -0.181022
v 0.057985 0.057985 -0.226452
v 0.087743 0.000000 -0.181022
v 0.082004 0.000000 -0.226452
v 0.062044 -0.062044 -0.181022
v 0.057985 -0.057985 -0.226452
v -0.000000 -0.087743 -0.181022
v -0.000000 -0.082003 -0.226452
v -0.062044 -0.062044 -0.181022
v -0.057985 -0.057985 -0.226452
v -0.087743 0.000000 -0.181022
v -0.082004 0.000000 -0.226452
v -0.062044 0.062044 -0.181022
v -0.057985 0.057985 -0.226452
v -0.004905 -0.005591 0.278987
v -0.004905 -0.005591 0.088613
v 0.007376 0.006689 0.278987
v 0.007376 0.006689 0.088613
v 0.112651 0.124245 0.190270
v 0.124932 0.111965 0.190270
v 0.112651 0.124245 0.278987
v 0.124932 0.111965 0.278987
v -0.122461 -0.110867 0.190270
v -0.110180 -0.123147 0.190270
v -0.122461 -0.110867 0.278987
v -0.110180 -0.123147 0.278987
v 0.007376 -0.005591 0.278987
v 0.007376 -0.005591 0.088613
v -0.004905 0.006689 0.278987
v -0.004905 0.006689 0.088613
vt 1.000000 1.000000
vt 0.875000 0.568440
vt 1.000000 0.568440
vt 0.250000 0.490000
vt 0.010000 0.250000
vt 0.250000 0.010000
vt 0.125000 0.568440
vt 0.000000 1.000000
vt 0.000000 0.568440
vt 0.875000 1.000000
vt 0.750000 0.568440
vt 0.750000 1.000000
vt 0.625000 0.568440
vt 0.500000 1.000000
vt 0.500000 0.568440
vt 0.375000 0.568440
vt 0.375000 1.000000
vt 0.250000 0.568440
vt 0.250000 1.000000
vt 0.490000 0.250000
vt 0.419706 0.419706
vt 0.080294 0.419706
vt 0.080294 0.080294
vt 0.419706 0.080294
vt 0.125000 1.000000
vt 0.625000 1.000000
vt 0.619268 0.545456
vt 0.526804 0.500000
vt 0.598196 0.500000
vt 0.380732 0.545456
vt 0.473196 0.500000
vt 0.494268 0.545456
vt 0.369268 0.545456
vt 0.276804 0.500000
vt 0.348196 0.500000
vt 0.130732 0.545456
vt 0.223196 0.500000
vt 0.244268 0.545456
vt 0.625000 0.000000
vt 0.375000 0.250000
vt 0.375000 0.000000
vt 0.630732 0.545456
vt 0.723196 0.500000
vt 0.744268 0.545456
vt 0.869268 0.545456
vt 0.776804 0.500000
vt 0.848196 0.500000
vt 0.880732 0.545456
vt 0.973196 0.500000
vt 0.994268 0.545456
vt 0.846925 0.346925
vt 0.846925 0.153075
vt 0.653075 0.153075
vt 0.505732 0.545456
vt 0.255732 0.545456
vt 0.119268 0.545456
vt 0.026804 0.500000
vt 0.098196 0.500000
vt 0.625000 0.375000
vt 0.375000 0.500000
vt 0.375000 0.375000
vt 0.625000 0.500000
vt 0.375000 0.750000
vt 0.625000 0.875000
vt 0.375000 1.000000
vt 0.375000 0.875000
vt 0.250000 0.750000
vt 0.250000 0.500000
vt 0.875000 0.500000
vt 0.750000 0.750000
vt 0.750000 0.500000
vt 0.625000 0.750000
vt 0.125000 0.500000
vt 0.125000 0.750000
vt 0.625000 0.000000
vt 0.375000 0.250000
vt 0.375000 0.000000
vt 0.625000 0.375000
vt 0.375000 0.500000
vt 0.375000 0.375000
vt 0.625000 0.500000
vt 0.375000 0.750000
vt 0.625000 0.875000
vt 0.375000 1.000000
vt 0.375000 0.875000
vt 0.250000 0.750000
vt 0.250000 0.500000
vt 0.875000 0.500000
vt 0.750000 0.750000
vt 0.750000 0.500000
vt 0.625000 0.750000
vt 0.125000 0.500000
vt 0.125000 0.750000
vt 0.401804 0.500000
vt 0.151804 0.500000
vt 0.625000 0.250000
vt 0.651804 0.500000
vt 0.755732 0.545456
vt 0.901804 0.500000
vt 0.653075 0.346925
vt 0.750000 0.387072
vt 0.887072 0.250000
vt 0.750000 0.112928
vt 0.612928 0.250000
vt 0.005732 0.545456
vt 0.625000 1.000000
vt 0.875000 0.750000
vt 0.625000 0.250000
vt 0.625000 1.000000
vt 0.875000 0.750000
vn 0.3827 0.9238 -0.0103
vn -0.0000 -0.0000 1.0000
vn -0.3827 0.9238 -0.0103
vn 0.9238 0.3827 -0.0103
vn 0.9238 -0.3827 -0.0103
vn 0.3827 -0.9238 -0.0103
vn -0.3827 -0.9238 -0.0103
vn -0.9238 -0.3827 -0.0103
vn -0.9238 0.3827 -0.0103
vn 0.3225 -0.7786 -0.5383
vn -0.3225 -0.7786 -0.5383
vn -0.7786 -0.3225 -0.5383
vn -0.7786 0.3225 -0.5383
vn -0.7071 0.7071 0.0000
vn 0.7786 -0.3225 -0.5383
vn 0.7786 0.3225 -0.5383
vn 0.3225 0.7786 -0.5383
vn -0.0000 -0.0000 -1.0000
vn 0.3801 0.9177 -0.1159
vn 0.9176 0.3801 -0.1159
vn 0.9176 -0.3801 -0.1159
vn 0.3801 -0.9176 -0.1159
vn -0.3801 -0.9176 -0.1159
vn -0.9176 -0.3801 -0.1159
vn -0.9176 0.3801 -0.1159
vn -0.3801 0.9176 -0.1159
vn -0.3225 0.7786 -0.5383
vn 0.3689 -0.3689 -0.8531
vn 0.7071 -0.7071 0.0000
vn -0.7071 -0.7071 0.0000
vn 0.7071 0.7071 0.0000
vn -0.3689 0.3689 -0.8531
vn 0.3689 0.3689 -0.8531
vn -0.3689 -0.3689 -0.8531
vn 0.3801 0.9176 -0.1159
s off
f 1/1/1 27/2/1 26/3/1
f 1/4/2 7/5/2 5/6/2
f 39/7/3 1/8/3 26/9/3
f 2/10/4 29/11/4 27/2/4
f 3/12/5 31/13/5 29/11/5
f 31/13/6 5/14/6 33/15/6
f 5/14/7 35/16/7 33/15/7
f 6/17/8 37/18/8 35/16/8
f 7/19/9 39/7/9 37/18/9
f 1/1/1 2/10/1 27/2/1
f 3/20/2 2/21/2 1/4/2
f 1/4/2 8/22/2 7/5/2
f 7/5/2 6/23/2 5/6/2
f 5/6/2 4/24/2 3/20/2
f 3/20/2 1/4/2 5/6/2
f 39/7/3 8/25/3 1/8/3
f 2/10/4 3/12/4 29/11/4
f 3/12/5 4/26/5 31/13/5
f 31/13/6 4/26/6 5/14/6
f 5/14/7 6/17/7 35/16/7
f 6/17/8 7/19/8 37/18/8
f 7/19/9 8/25/9 39/7/9
f 32/27/10 17/28/10 15/29/10
f 36/30/11 17/31/11 34/32/11
f 36/33/12 21/34/12 19/35/12
f 40/36/13 21/37/13 38/38/13
f 22/39/14 20/40/14 24/41/14
f 32/42/15 13/43/15 30/44/15
f 28/45/16 13/46/16 11/47/16
f 28/48/17 9/49/17 25/50/17
f 11/51/18 15/52/18 19/53/18
f 26/3/19 28/48/19 25/50/19
f 29/11/20 28/45/20 27/2/20
f 31/13/21 30/44/21 29/11/21
f 31/13/22 34/54/22 32/27/22
f 33/15/23 36/30/23 34/32/23
f 35/16/24 38/55/24 36/33/24
f 39/7/25 38/38/25 37/18/25
f 26/9/26 40/56/26 39/7/26
f 40/56/27 9/57/27 23/58/27
f 44/59/28 12/60/28 42/61/28
f 10/62/29 16/63/29 12/60/29
f 43/64/2 24/65/2 41/66/2
f 12/60/30 41/67/30 42/68/30
f 18/69/31 43/70/31 44/71/31
f 10/62/31 43/70/31 14/72/31
f 20/73/30 41/67/30 24/74/30
f 14/72/2 41/66/2 16/63/2
f 20/40/32 44/59/32 42/61/32
f 51/75/30 50/76/30 52/77/30
f 56/78/33 46/79/33 54/80/33
f 45/81/31 48/82/31 46/79/31
f 55/83/2 52/84/2 53/85/2
f 46/79/29 53/86/29 54/87/29
f 49/88/14 55/89/14 56/90/14
f 45/81/14 55/89/14 47/91/14
f 50/92/29 53/86/29 52/93/29
f 47/91/2 53/85/2 48/82/2
f 50/76/34 56/78/34 54/80/34
f 32/27/10 34/54/10 17/28/10
f 36/30/11 19/94/11 17/31/11
f 36/33/12 38/55/12 21/34/12
f 40/36/13 23/95/13 21/37/13
f 22/39/14 18/96/14 20/40/14
f 32/42/15 15/97/15 13/43/15
f 28/45/16 30/98/16 13/46/16
f 28/48/17 11/99/17 9/49/17
f 23/100/18 9/101/18 11/51/18
f 11/51/18 13/102/18 15/52/18
f 15/52/18 17/103/18 19/53/18
f 19/53/18 21/104/18 23/100/18
f 23/100/18 11/51/18 19/53/18
f 26/3/35 27/2/35 28/48/35
f 29/11/20 30/98/20 28/45/20
f 31/13/21 32/42/21 30/44/21
f 31/13/22 33/15/22 34/54/22
f 33/15/23 35/16/23 36/30/23
f 35/16/24 37/18/24 38/55/24
f 39/7/25 40/36/25 38/38/25
f 26/9/26 25/105/26 40/56/26
f 40/56/27 25/105/27 9/57/27
f 44/59/28 10/62/28 12/60/28
f 10/62/29 14/72/29 16/63/29
f 43/64/2 22/106/2 24/65/2
f 12/60/30 16/63/30 41/67/30
f 18/69/31 22/107/31 43/70/31
f 10/62/31 44/71/31 43/70/31
f 20/73/30 42/68/30 41/67/30
f 14/72/2 43/64/2 41/66/2
f 20/40/32 18/96/32 44/59/32
f 51/75/30 49/108/30 50/76/30
f 56/78/33 45/81/33 46/79/33
f 45/81/31 47/91/31 48/82/31
f 55/83/2 51/109/2 52/84/2
f 46/79/29 48/82/29 53/86/29
f 49/88/14 51/110/14 55/89/14
f 45/81/14 56/90/14 55/89/14
f 50/92/29 54/87/29 53/86/29
f 47/91/2 55/83/2 53/85/2
f 50/76/34 49/108/34 56/78/34
